<mxfile host="app.diagrams.net" modified="2024-05-13T18:48:37.341Z" agent="Mozilla/5.0 (Macintosh; Intel Mac OS X 10_15_7) AppleWebKit/605.1.15 (KHTML, like Gecko) Version/17.4.1 Safari/605.1.15" etag="o1MedkadvXOmIjX2rQWA" version="24.4.0" type="device">
  <diagram name="Pagina-1" id="QTGkaFuVufyVtia51VzJ">
    <mxGraphModel dx="2514" dy="946" grid="1" gridSize="10" guides="1" tooltips="1" connect="1" arrows="1" fold="1" page="1" pageScale="1" pageWidth="827" pageHeight="1169" math="0" shadow="0">
      <root>
        <mxCell id="0" />
        <mxCell id="1" parent="0" />
        <mxCell id="JJwk-e65k5FWWCbelavX-6" value="PAZIENTE" style="rounded=0;whiteSpace=wrap;html=1;" vertex="1" parent="1">
          <mxGeometry x="-60" y="150" width="120" height="60" as="geometry" />
        </mxCell>
        <mxCell id="JJwk-e65k5FWWCbelavX-7" value="MEDICO" style="rounded=0;whiteSpace=wrap;html=1;" vertex="1" parent="1">
          <mxGeometry x="-720" y="410" width="120" height="60" as="geometry" />
        </mxCell>
        <mxCell id="JJwk-e65k5FWWCbelavX-8" value="PRESCRIZIONE" style="rounded=0;whiteSpace=wrap;html=1;" vertex="1" parent="1">
          <mxGeometry x="-308" y="790" width="120" height="60" as="geometry" />
        </mxCell>
        <mxCell id="JJwk-e65k5FWWCbelavX-9" value="SERVIZIO" style="rounded=0;whiteSpace=wrap;html=1;" vertex="1" parent="1">
          <mxGeometry x="320" y="380" width="120" height="60" as="geometry" />
        </mxCell>
        <mxCell id="JJwk-e65k5FWWCbelavX-10" value="FATTURA" style="rounded=0;whiteSpace=wrap;html=1;" vertex="1" parent="1">
          <mxGeometry x="-750" y="835.5" width="120" height="60" as="geometry" />
        </mxCell>
        <mxCell id="JJwk-e65k5FWWCbelavX-11" value="APPUNTAMENTO" style="rounded=0;whiteSpace=wrap;html=1;" vertex="1" parent="1">
          <mxGeometry x="-60" y="380" width="120" height="60" as="geometry" />
        </mxCell>
        <mxCell id="JJwk-e65k5FWWCbelavX-13" value="NomeS" style="ellipse;whiteSpace=wrap;html=1;" vertex="1" parent="1">
          <mxGeometry x="-105" y="70" width="80" height="50" as="geometry" />
        </mxCell>
        <mxCell id="JJwk-e65k5FWWCbelavX-14" value="COGNOME" style="ellipse;whiteSpace=wrap;html=1;" vertex="1" parent="1">
          <mxGeometry x="-55" width="80" height="50" as="geometry" />
        </mxCell>
        <mxCell id="JJwk-e65k5FWWCbelavX-15" value="N. TELEFONO" style="ellipse;whiteSpace=wrap;html=1;" vertex="1" parent="1">
          <mxGeometry x="75" width="80" height="50" as="geometry" />
        </mxCell>
        <mxCell id="JJwk-e65k5FWWCbelavX-16" value="EMAIL" style="ellipse;whiteSpace=wrap;html=1;" vertex="1" parent="1">
          <mxGeometry x="-15" y="60" width="80" height="50" as="geometry" />
        </mxCell>
        <mxCell id="JJwk-e65k5FWWCbelavX-17" value="INFO" style="ellipse;whiteSpace=wrap;html=1;" vertex="1" parent="1">
          <mxGeometry x="105" y="60" width="80" height="50" as="geometry" />
        </mxCell>
        <mxCell id="JJwk-e65k5FWWCbelavX-18" value="&lt;i&gt;&lt;u&gt;CF&lt;/u&gt;&lt;/i&gt;" style="ellipse;whiteSpace=wrap;html=1;" vertex="1" parent="1">
          <mxGeometry x="-185" y="100" width="80" height="50" as="geometry" />
        </mxCell>
        <mxCell id="JJwk-e65k5FWWCbelavX-19" value="" style="endArrow=none;html=1;rounded=0;entryX=1;entryY=1;entryDx=0;entryDy=0;exitX=0;exitY=0;exitDx=0;exitDy=0;" edge="1" parent="1" source="JJwk-e65k5FWWCbelavX-6" target="JJwk-e65k5FWWCbelavX-18">
          <mxGeometry width="50" height="50" relative="1" as="geometry">
            <mxPoint x="-180" y="490" as="sourcePoint" />
            <mxPoint x="-130" y="440" as="targetPoint" />
          </mxGeometry>
        </mxCell>
        <mxCell id="JJwk-e65k5FWWCbelavX-20" value="" style="endArrow=none;html=1;rounded=0;exitX=0.25;exitY=0;exitDx=0;exitDy=0;entryX=0.5;entryY=1;entryDx=0;entryDy=0;" edge="1" parent="1" source="JJwk-e65k5FWWCbelavX-6" target="JJwk-e65k5FWWCbelavX-13">
          <mxGeometry width="50" height="50" relative="1" as="geometry">
            <mxPoint x="-50" y="160" as="sourcePoint" />
            <mxPoint x="-30" y="100" as="targetPoint" />
          </mxGeometry>
        </mxCell>
        <mxCell id="JJwk-e65k5FWWCbelavX-21" value="" style="endArrow=none;html=1;rounded=0;entryX=0.5;entryY=1;entryDx=0;entryDy=0;exitX=1;exitY=0;exitDx=0;exitDy=0;" edge="1" parent="1" source="JJwk-e65k5FWWCbelavX-13" target="JJwk-e65k5FWWCbelavX-14">
          <mxGeometry width="50" height="50" relative="1" as="geometry">
            <mxPoint x="-190" y="490" as="sourcePoint" />
            <mxPoint x="-140" y="440" as="targetPoint" />
          </mxGeometry>
        </mxCell>
        <mxCell id="JJwk-e65k5FWWCbelavX-22" value="" style="endArrow=none;html=1;rounded=0;entryX=0.5;entryY=1;entryDx=0;entryDy=0;exitX=0.5;exitY=0;exitDx=0;exitDy=0;" edge="1" parent="1" source="JJwk-e65k5FWWCbelavX-6" target="JJwk-e65k5FWWCbelavX-16">
          <mxGeometry width="50" height="50" relative="1" as="geometry">
            <mxPoint x="-50" y="460" as="sourcePoint" />
            <mxPoint y="410" as="targetPoint" />
          </mxGeometry>
        </mxCell>
        <mxCell id="JJwk-e65k5FWWCbelavX-23" value="" style="endArrow=none;html=1;rounded=0;entryX=0.5;entryY=1;entryDx=0;entryDy=0;exitX=0.75;exitY=0;exitDx=0;exitDy=0;" edge="1" parent="1" source="JJwk-e65k5FWWCbelavX-6" target="JJwk-e65k5FWWCbelavX-15">
          <mxGeometry width="50" height="50" relative="1" as="geometry">
            <mxPoint y="390" as="sourcePoint" />
            <mxPoint x="50" y="340" as="targetPoint" />
          </mxGeometry>
        </mxCell>
        <mxCell id="JJwk-e65k5FWWCbelavX-24" value="" style="endArrow=none;html=1;rounded=0;entryX=0;entryY=1;entryDx=0;entryDy=0;exitX=1;exitY=0;exitDx=0;exitDy=0;" edge="1" parent="1" source="JJwk-e65k5FWWCbelavX-6" target="JJwk-e65k5FWWCbelavX-17">
          <mxGeometry width="50" height="50" relative="1" as="geometry">
            <mxPoint x="-40" y="450" as="sourcePoint" />
            <mxPoint x="10" y="400" as="targetPoint" />
          </mxGeometry>
        </mxCell>
        <mxCell id="JJwk-e65k5FWWCbelavX-25" value="&lt;i&gt;&lt;u&gt;REG. MEDICA&lt;/u&gt;&lt;/i&gt;" style="ellipse;whiteSpace=wrap;html=1;" vertex="1" parent="1">
          <mxGeometry x="-827" y="360" width="80" height="50" as="geometry" />
        </mxCell>
        <mxCell id="JJwk-e65k5FWWCbelavX-29" value="SPECIALIZZAZIONE" style="ellipse;whiteSpace=wrap;html=1;" vertex="1" parent="1">
          <mxGeometry x="-660" y="310" width="120" height="50" as="geometry" />
        </mxCell>
        <mxCell id="JJwk-e65k5FWWCbelavX-30" value="NOME" style="ellipse;whiteSpace=wrap;html=1;" vertex="1" parent="1">
          <mxGeometry x="-155" width="80" height="50" as="geometry" />
        </mxCell>
        <mxCell id="JJwk-e65k5FWWCbelavX-31" value="" style="endArrow=none;html=1;rounded=0;entryX=0.5;entryY=1;entryDx=0;entryDy=0;exitX=0;exitY=0;exitDx=0;exitDy=0;" edge="1" parent="1" source="JJwk-e65k5FWWCbelavX-13" target="JJwk-e65k5FWWCbelavX-30">
          <mxGeometry width="50" height="50" relative="1" as="geometry">
            <mxPoint x="-255" y="190" as="sourcePoint" />
            <mxPoint x="-205" y="140" as="targetPoint" />
          </mxGeometry>
        </mxCell>
        <mxCell id="JJwk-e65k5FWWCbelavX-32" value="SESSO" style="ellipse;whiteSpace=wrap;html=1;" vertex="1" parent="1">
          <mxGeometry x="102" y="120" width="80" height="50" as="geometry" />
        </mxCell>
        <mxCell id="JJwk-e65k5FWWCbelavX-33" value="" style="endArrow=none;html=1;rounded=0;entryX=0;entryY=0.5;entryDx=0;entryDy=0;exitX=1;exitY=0.25;exitDx=0;exitDy=0;" edge="1" parent="1" source="JJwk-e65k5FWWCbelavX-6" target="JJwk-e65k5FWWCbelavX-32">
          <mxGeometry width="50" height="50" relative="1" as="geometry">
            <mxPoint x="92" y="160" as="sourcePoint" />
            <mxPoint x="127" y="113" as="targetPoint" />
          </mxGeometry>
        </mxCell>
        <mxCell id="JJwk-e65k5FWWCbelavX-34" value="NomeS" style="ellipse;whiteSpace=wrap;html=1;" vertex="1" parent="1">
          <mxGeometry x="-750" y="310" width="80" height="50" as="geometry" />
        </mxCell>
        <mxCell id="JJwk-e65k5FWWCbelavX-35" value="COGNOME" style="ellipse;whiteSpace=wrap;html=1;" vertex="1" parent="1">
          <mxGeometry x="-700" y="250" width="80" height="50" as="geometry" />
        </mxCell>
        <mxCell id="JJwk-e65k5FWWCbelavX-36" value="NOME" style="ellipse;whiteSpace=wrap;html=1;" vertex="1" parent="1">
          <mxGeometry x="-800" y="250" width="80" height="50" as="geometry" />
        </mxCell>
        <mxCell id="JJwk-e65k5FWWCbelavX-37" value="" style="endArrow=none;html=1;rounded=0;entryX=0.5;entryY=1;entryDx=0;entryDy=0;exitX=1;exitY=0;exitDx=0;exitDy=0;" edge="1" parent="1" source="JJwk-e65k5FWWCbelavX-34" target="JJwk-e65k5FWWCbelavX-35">
          <mxGeometry width="50" height="50" relative="1" as="geometry">
            <mxPoint x="-930" y="370" as="sourcePoint" />
            <mxPoint x="-880" y="320" as="targetPoint" />
          </mxGeometry>
        </mxCell>
        <mxCell id="JJwk-e65k5FWWCbelavX-38" value="" style="endArrow=none;html=1;rounded=0;entryX=0.5;entryY=1;entryDx=0;entryDy=0;exitX=0;exitY=0;exitDx=0;exitDy=0;" edge="1" parent="1" source="JJwk-e65k5FWWCbelavX-34" target="JJwk-e65k5FWWCbelavX-36">
          <mxGeometry width="50" height="50" relative="1" as="geometry">
            <mxPoint x="-940" y="360" as="sourcePoint" />
            <mxPoint x="-890" y="310" as="targetPoint" />
          </mxGeometry>
        </mxCell>
        <mxCell id="JJwk-e65k5FWWCbelavX-39" value="SESSO" style="ellipse;whiteSpace=wrap;html=1;" vertex="1" parent="1">
          <mxGeometry x="-580" y="360" width="80" height="50" as="geometry" />
        </mxCell>
        <mxCell id="JJwk-e65k5FWWCbelavX-40" value="" style="endArrow=none;html=1;rounded=0;entryX=0;entryY=0;entryDx=0;entryDy=0;exitX=1;exitY=1;exitDx=0;exitDy=0;" edge="1" parent="1" source="JJwk-e65k5FWWCbelavX-25" target="JJwk-e65k5FWWCbelavX-7">
          <mxGeometry width="50" height="50" relative="1" as="geometry">
            <mxPoint x="-820" y="520" as="sourcePoint" />
            <mxPoint x="-770" y="470" as="targetPoint" />
          </mxGeometry>
        </mxCell>
        <mxCell id="JJwk-e65k5FWWCbelavX-41" value="" style="endArrow=none;html=1;rounded=0;entryX=0.5;entryY=1;entryDx=0;entryDy=0;exitX=0.25;exitY=0;exitDx=0;exitDy=0;" edge="1" parent="1" source="JJwk-e65k5FWWCbelavX-7" target="JJwk-e65k5FWWCbelavX-34">
          <mxGeometry width="50" height="50" relative="1" as="geometry">
            <mxPoint x="-820" y="580" as="sourcePoint" />
            <mxPoint x="-770" y="530" as="targetPoint" />
          </mxGeometry>
        </mxCell>
        <mxCell id="JJwk-e65k5FWWCbelavX-42" value="" style="endArrow=none;html=1;rounded=0;entryX=0.5;entryY=1;entryDx=0;entryDy=0;exitX=0.5;exitY=0;exitDx=0;exitDy=0;" edge="1" parent="1" source="JJwk-e65k5FWWCbelavX-7" target="JJwk-e65k5FWWCbelavX-29">
          <mxGeometry width="50" height="50" relative="1" as="geometry">
            <mxPoint x="-770" y="680" as="sourcePoint" />
            <mxPoint x="-720" y="630" as="targetPoint" />
          </mxGeometry>
        </mxCell>
        <mxCell id="JJwk-e65k5FWWCbelavX-43" value="" style="endArrow=none;html=1;rounded=0;entryX=0;entryY=0.5;entryDx=0;entryDy=0;exitX=1;exitY=0;exitDx=0;exitDy=0;" edge="1" parent="1" source="JJwk-e65k5FWWCbelavX-7" target="JJwk-e65k5FWWCbelavX-39">
          <mxGeometry width="50" height="50" relative="1" as="geometry">
            <mxPoint x="-630" y="620" as="sourcePoint" />
            <mxPoint x="-580" y="570" as="targetPoint" />
          </mxGeometry>
        </mxCell>
        <mxCell id="JJwk-e65k5FWWCbelavX-44" value="NOME&lt;div&gt;SERVIZIO&lt;/div&gt;" style="ellipse;whiteSpace=wrap;html=1;" vertex="1" parent="1">
          <mxGeometry x="334" y="510" width="80" height="50" as="geometry" />
        </mxCell>
        <mxCell id="JJwk-e65k5FWWCbelavX-45" value="COSTO" style="ellipse;whiteSpace=wrap;html=1;" vertex="1" parent="1">
          <mxGeometry x="450" y="541" width="80" height="51" as="geometry" />
        </mxCell>
        <mxCell id="JJwk-e65k5FWWCbelavX-46" value="DURATA" style="ellipse;whiteSpace=wrap;html=1;" vertex="1" parent="1">
          <mxGeometry x="450" y="464" width="80" height="51" as="geometry" />
        </mxCell>
        <mxCell id="JJwk-e65k5FWWCbelavX-48" value="&lt;i&gt;&lt;u&gt;CODICE&lt;/u&gt;&lt;/i&gt;" style="ellipse;whiteSpace=wrap;html=1;" vertex="1" parent="1">
          <mxGeometry x="223" y="480" width="80" height="51" as="geometry" />
        </mxCell>
        <mxCell id="JJwk-e65k5FWWCbelavX-49" value="" style="endArrow=none;html=1;rounded=0;entryX=0;entryY=1;entryDx=0;entryDy=0;exitX=1;exitY=0;exitDx=0;exitDy=0;" edge="1" parent="1" source="JJwk-e65k5FWWCbelavX-48" target="JJwk-e65k5FWWCbelavX-9">
          <mxGeometry width="50" height="50" relative="1" as="geometry">
            <mxPoint x="220" y="460" as="sourcePoint" />
            <mxPoint x="270" y="410" as="targetPoint" />
          </mxGeometry>
        </mxCell>
        <mxCell id="JJwk-e65k5FWWCbelavX-50" value="" style="endArrow=none;html=1;rounded=0;entryX=0.5;entryY=0;entryDx=0;entryDy=0;exitX=0.25;exitY=1;exitDx=0;exitDy=0;" edge="1" parent="1" source="JJwk-e65k5FWWCbelavX-9" target="JJwk-e65k5FWWCbelavX-44">
          <mxGeometry width="50" height="50" relative="1" as="geometry">
            <mxPoint x="150" y="480" as="sourcePoint" />
            <mxPoint x="200" y="430" as="targetPoint" />
          </mxGeometry>
        </mxCell>
        <mxCell id="JJwk-e65k5FWWCbelavX-51" value="" style="endArrow=none;html=1;rounded=0;entryX=0;entryY=0;entryDx=0;entryDy=0;exitX=0.5;exitY=1;exitDx=0;exitDy=0;" edge="1" parent="1" source="JJwk-e65k5FWWCbelavX-9" target="JJwk-e65k5FWWCbelavX-45">
          <mxGeometry width="50" height="50" relative="1" as="geometry">
            <mxPoint x="230" y="500" as="sourcePoint" />
            <mxPoint x="280" y="450" as="targetPoint" />
          </mxGeometry>
        </mxCell>
        <mxCell id="JJwk-e65k5FWWCbelavX-52" value="" style="endArrow=none;html=1;rounded=0;entryX=0.5;entryY=0;entryDx=0;entryDy=0;exitX=1;exitY=1;exitDx=0;exitDy=0;" edge="1" parent="1" source="JJwk-e65k5FWWCbelavX-9" target="JJwk-e65k5FWWCbelavX-46">
          <mxGeometry width="50" height="50" relative="1" as="geometry">
            <mxPoint x="480" y="510" as="sourcePoint" />
            <mxPoint x="530" y="460" as="targetPoint" />
          </mxGeometry>
        </mxCell>
        <mxCell id="JJwk-e65k5FWWCbelavX-53" value="MODALITA&#39;&lt;div&gt;PAGAMENTO&lt;/div&gt;" style="ellipse;whiteSpace=wrap;html=1;" vertex="1" parent="1">
          <mxGeometry x="-777" y="728" width="80" height="51" as="geometry" />
        </mxCell>
        <mxCell id="JJwk-e65k5FWWCbelavX-54" value="STATO&lt;div&gt;PAGAMENTO&lt;/div&gt;" style="ellipse;whiteSpace=wrap;html=1;" vertex="1" parent="1">
          <mxGeometry x="-692" y="735.5" width="80" height="51" as="geometry" />
        </mxCell>
        <mxCell id="JJwk-e65k5FWWCbelavX-56" value="DATA&lt;div&gt;EMISSIONE&lt;/div&gt;" style="ellipse;whiteSpace=wrap;html=1;" vertex="1" parent="1">
          <mxGeometry x="-615.5" y="779" width="80" height="51" as="geometry" />
        </mxCell>
        <mxCell id="JJwk-e65k5FWWCbelavX-57" value="GIORNO" style="ellipse;whiteSpace=wrap;html=1;" vertex="1" parent="1">
          <mxGeometry x="-608.5" y="700" width="80" height="51" as="geometry" />
        </mxCell>
        <mxCell id="JJwk-e65k5FWWCbelavX-59" value="MESE" style="ellipse;whiteSpace=wrap;html=1;" vertex="1" parent="1">
          <mxGeometry x="-528.5" y="728" width="80" height="51" as="geometry" />
        </mxCell>
        <mxCell id="JJwk-e65k5FWWCbelavX-60" value="ANNO" style="ellipse;whiteSpace=wrap;html=1;" vertex="1" parent="1">
          <mxGeometry x="-518.5" y="791" width="80" height="51" as="geometry" />
        </mxCell>
        <mxCell id="JJwk-e65k5FWWCbelavX-61" value="&lt;i&gt;&lt;u&gt;ID&lt;/u&gt;&lt;/i&gt;" style="ellipse;whiteSpace=wrap;html=1;" vertex="1" parent="1">
          <mxGeometry x="-827" y="779" width="80" height="51" as="geometry" />
        </mxCell>
        <mxCell id="JJwk-e65k5FWWCbelavX-62" value="" style="endArrow=none;html=1;rounded=0;entryX=0;entryY=0;entryDx=0;entryDy=0;exitX=1;exitY=1;exitDx=0;exitDy=0;" edge="1" parent="1" source="JJwk-e65k5FWWCbelavX-61" target="JJwk-e65k5FWWCbelavX-10">
          <mxGeometry width="50" height="50" relative="1" as="geometry">
            <mxPoint x="-770" y="995.5" as="sourcePoint" />
            <mxPoint x="-690" y="955.5" as="targetPoint" />
          </mxGeometry>
        </mxCell>
        <mxCell id="JJwk-e65k5FWWCbelavX-63" value="" style="endArrow=none;html=1;rounded=0;entryX=1;entryY=1;entryDx=0;entryDy=0;exitX=0.5;exitY=0;exitDx=0;exitDy=0;" edge="1" parent="1" source="JJwk-e65k5FWWCbelavX-10" target="JJwk-e65k5FWWCbelavX-53">
          <mxGeometry width="50" height="50" relative="1" as="geometry">
            <mxPoint x="-760" y="1005.5" as="sourcePoint" />
            <mxPoint x="-680" y="965.5" as="targetPoint" />
          </mxGeometry>
        </mxCell>
        <mxCell id="JJwk-e65k5FWWCbelavX-64" value="" style="endArrow=none;html=1;rounded=0;entryX=0.5;entryY=1;entryDx=0;entryDy=0;exitX=0.75;exitY=0;exitDx=0;exitDy=0;" edge="1" parent="1" source="JJwk-e65k5FWWCbelavX-10" target="JJwk-e65k5FWWCbelavX-54">
          <mxGeometry width="50" height="50" relative="1" as="geometry">
            <mxPoint x="-750" y="1015.5" as="sourcePoint" />
            <mxPoint x="-670" y="975.5" as="targetPoint" />
          </mxGeometry>
        </mxCell>
        <mxCell id="JJwk-e65k5FWWCbelavX-65" value="" style="endArrow=none;html=1;rounded=0;entryX=0;entryY=1;entryDx=0;entryDy=0;exitX=1;exitY=0;exitDx=0;exitDy=0;" edge="1" parent="1" source="JJwk-e65k5FWWCbelavX-10" target="JJwk-e65k5FWWCbelavX-56">
          <mxGeometry width="50" height="50" relative="1" as="geometry">
            <mxPoint x="-740" y="1025.5" as="sourcePoint" />
            <mxPoint x="-660" y="985.5" as="targetPoint" />
          </mxGeometry>
        </mxCell>
        <mxCell id="JJwk-e65k5FWWCbelavX-67" value="" style="endArrow=none;html=1;rounded=0;entryX=0;entryY=0.5;entryDx=0;entryDy=0;exitX=1;exitY=0;exitDx=0;exitDy=0;" edge="1" parent="1" source="JJwk-e65k5FWWCbelavX-56" target="JJwk-e65k5FWWCbelavX-59">
          <mxGeometry width="50" height="50" relative="1" as="geometry">
            <mxPoint x="-720" y="1045.5" as="sourcePoint" />
            <mxPoint x="-640" y="1005.5" as="targetPoint" />
          </mxGeometry>
        </mxCell>
        <mxCell id="JJwk-e65k5FWWCbelavX-68" value="" style="endArrow=none;html=1;rounded=0;entryX=0;entryY=0.5;entryDx=0;entryDy=0;exitX=1;exitY=0.5;exitDx=0;exitDy=0;" edge="1" parent="1" source="JJwk-e65k5FWWCbelavX-56" target="JJwk-e65k5FWWCbelavX-60">
          <mxGeometry width="50" height="50" relative="1" as="geometry">
            <mxPoint x="-710" y="1055.5" as="sourcePoint" />
            <mxPoint x="-630" y="1015.5" as="targetPoint" />
          </mxGeometry>
        </mxCell>
        <mxCell id="JJwk-e65k5FWWCbelavX-70" value="" style="endArrow=none;html=1;rounded=0;entryX=0.5;entryY=1;entryDx=0;entryDy=0;exitX=0.5;exitY=0;exitDx=0;exitDy=0;" edge="1" parent="1" source="JJwk-e65k5FWWCbelavX-56" target="JJwk-e65k5FWWCbelavX-57">
          <mxGeometry width="50" height="50" relative="1" as="geometry">
            <mxPoint x="-710" y="1055.5" as="sourcePoint" />
            <mxPoint x="-630" y="1015.5" as="targetPoint" />
          </mxGeometry>
        </mxCell>
        <mxCell id="JJwk-e65k5FWWCbelavX-76" value="NOTE" style="ellipse;whiteSpace=wrap;html=1;" vertex="1" parent="1">
          <mxGeometry x="-135" y="760" width="80" height="50" as="geometry" />
        </mxCell>
        <mxCell id="JJwk-e65k5FWWCbelavX-77" value="FARMACO" style="ellipse;whiteSpace=wrap;html=1;" vertex="1" parent="1">
          <mxGeometry x="-325" y="670" width="80" height="50" as="geometry" />
        </mxCell>
        <mxCell id="JJwk-e65k5FWWCbelavX-78" value="DOSAGGIO" style="ellipse;whiteSpace=wrap;html=1;" vertex="1" parent="1">
          <mxGeometry x="-245" y="720" width="80" height="50" as="geometry" />
        </mxCell>
        <mxCell id="JJwk-e65k5FWWCbelavX-79" value="DATA" style="ellipse;whiteSpace=wrap;html=1;" vertex="1" parent="1">
          <mxGeometry x="-5" y="470" width="80" height="50" as="geometry" />
        </mxCell>
        <mxCell id="JJwk-e65k5FWWCbelavX-80" value="MOTIVO" style="ellipse;whiteSpace=wrap;html=1;" vertex="1" parent="1">
          <mxGeometry x="-95" y="464" width="80" height="50" as="geometry" />
        </mxCell>
        <mxCell id="JJwk-e65k5FWWCbelavX-81" value="ORA" style="ellipse;whiteSpace=wrap;html=1;" vertex="1" parent="1">
          <mxGeometry x="-165" y="420" width="80" height="50" as="geometry" />
        </mxCell>
        <mxCell id="JJwk-e65k5FWWCbelavX-82" value="DATA&lt;div&gt;PRESCRIZIONE&lt;/div&gt;" style="ellipse;whiteSpace=wrap;html=1;" vertex="1" parent="1">
          <mxGeometry x="-165" y="670" width="100" height="50" as="geometry" />
        </mxCell>
        <mxCell id="JJwk-e65k5FWWCbelavX-83" value="&lt;i&gt;&lt;u&gt;CODICE&lt;/u&gt;&lt;/i&gt;" style="ellipse;whiteSpace=wrap;html=1;" vertex="1" parent="1">
          <mxGeometry x="-375" y="719" width="80" height="51" as="geometry" />
        </mxCell>
        <mxCell id="JJwk-e65k5FWWCbelavX-84" value="" style="endArrow=none;html=1;rounded=0;entryX=0;entryY=0.5;entryDx=0;entryDy=0;exitX=1;exitY=0.25;exitDx=0;exitDy=0;" edge="1" parent="1" source="JJwk-e65k5FWWCbelavX-8" target="JJwk-e65k5FWWCbelavX-76">
          <mxGeometry width="50" height="50" relative="1" as="geometry">
            <mxPoint x="-165" y="1050" as="sourcePoint" />
            <mxPoint x="-115" y="1000" as="targetPoint" />
          </mxGeometry>
        </mxCell>
        <mxCell id="JJwk-e65k5FWWCbelavX-85" value="" style="endArrow=none;html=1;rounded=0;entryX=0.5;entryY=1;entryDx=0;entryDy=0;exitX=1;exitY=0;exitDx=0;exitDy=0;" edge="1" parent="1" source="JJwk-e65k5FWWCbelavX-8" target="JJwk-e65k5FWWCbelavX-82">
          <mxGeometry width="50" height="50" relative="1" as="geometry">
            <mxPoint x="-185" y="910" as="sourcePoint" />
            <mxPoint x="-135" y="860" as="targetPoint" />
          </mxGeometry>
        </mxCell>
        <mxCell id="JJwk-e65k5FWWCbelavX-86" value="" style="endArrow=none;html=1;rounded=0;entryX=0.5;entryY=1;entryDx=0;entryDy=0;exitX=0.75;exitY=0;exitDx=0;exitDy=0;" edge="1" parent="1" source="JJwk-e65k5FWWCbelavX-8" target="JJwk-e65k5FWWCbelavX-78">
          <mxGeometry width="50" height="50" relative="1" as="geometry">
            <mxPoint x="-165" y="970" as="sourcePoint" />
            <mxPoint x="-115" y="920" as="targetPoint" />
          </mxGeometry>
        </mxCell>
        <mxCell id="JJwk-e65k5FWWCbelavX-87" value="" style="endArrow=none;html=1;rounded=0;entryX=0.5;entryY=1;entryDx=0;entryDy=0;exitX=0.25;exitY=0;exitDx=0;exitDy=0;" edge="1" parent="1" source="JJwk-e65k5FWWCbelavX-8" target="JJwk-e65k5FWWCbelavX-77">
          <mxGeometry width="50" height="50" relative="1" as="geometry">
            <mxPoint x="-265" y="970" as="sourcePoint" />
            <mxPoint x="-215" y="920" as="targetPoint" />
          </mxGeometry>
        </mxCell>
        <mxCell id="JJwk-e65k5FWWCbelavX-88" value="" style="endArrow=none;html=1;rounded=0;entryX=0.5;entryY=1;entryDx=0;entryDy=0;exitX=0;exitY=0;exitDx=0;exitDy=0;" edge="1" parent="1" source="JJwk-e65k5FWWCbelavX-8" target="JJwk-e65k5FWWCbelavX-83">
          <mxGeometry width="50" height="50" relative="1" as="geometry">
            <mxPoint x="-195" y="960" as="sourcePoint" />
            <mxPoint x="-145" y="910" as="targetPoint" />
          </mxGeometry>
        </mxCell>
        <mxCell id="JJwk-e65k5FWWCbelavX-91" value="&lt;i&gt;&lt;u&gt;CODICE&lt;/u&gt;&lt;/i&gt;" style="ellipse;whiteSpace=wrap;html=1;" vertex="1" parent="1">
          <mxGeometry x="65" y="429" width="80" height="51" as="geometry" />
        </mxCell>
        <mxCell id="JJwk-e65k5FWWCbelavX-92" value="GIORNO" style="ellipse;whiteSpace=wrap;html=1;" vertex="1" parent="1">
          <mxGeometry x="-50" y="534" width="80" height="51" as="geometry" />
        </mxCell>
        <mxCell id="JJwk-e65k5FWWCbelavX-93" value="MESE" style="ellipse;whiteSpace=wrap;html=1;" vertex="1" parent="1">
          <mxGeometry x="40" y="534" width="80" height="51" as="geometry" />
        </mxCell>
        <mxCell id="JJwk-e65k5FWWCbelavX-94" value="ANNO" style="ellipse;whiteSpace=wrap;html=1;" vertex="1" parent="1">
          <mxGeometry x="90" y="490" width="80" height="51" as="geometry" />
        </mxCell>
        <mxCell id="JJwk-e65k5FWWCbelavX-98" value="" style="endArrow=none;html=1;rounded=0;entryX=1;entryY=0;entryDx=0;entryDy=0;exitX=0.5;exitY=1;exitDx=0;exitDy=0;" edge="1" parent="1" source="JJwk-e65k5FWWCbelavX-79" target="JJwk-e65k5FWWCbelavX-92">
          <mxGeometry width="50" height="50" relative="1" as="geometry">
            <mxPoint x="-210" y="950" as="sourcePoint" />
            <mxPoint x="-160" y="900" as="targetPoint" />
          </mxGeometry>
        </mxCell>
        <mxCell id="JJwk-e65k5FWWCbelavX-99" value="" style="endArrow=none;html=1;rounded=0;entryX=0.5;entryY=0;entryDx=0;entryDy=0;exitX=1;exitY=1;exitDx=0;exitDy=0;" edge="1" parent="1" source="JJwk-e65k5FWWCbelavX-79" target="JJwk-e65k5FWWCbelavX-93">
          <mxGeometry width="50" height="50" relative="1" as="geometry">
            <mxPoint x="-80" y="890" as="sourcePoint" />
            <mxPoint x="-30" y="840" as="targetPoint" />
          </mxGeometry>
        </mxCell>
        <mxCell id="JJwk-e65k5FWWCbelavX-100" value="" style="endArrow=none;html=1;rounded=0;entryX=0;entryY=0;entryDx=0;entryDy=0;exitX=1;exitY=0.5;exitDx=0;exitDy=0;" edge="1" parent="1" source="JJwk-e65k5FWWCbelavX-79" target="JJwk-e65k5FWWCbelavX-94">
          <mxGeometry width="50" height="50" relative="1" as="geometry">
            <mxPoint x="-280" y="900" as="sourcePoint" />
            <mxPoint x="-230" y="850" as="targetPoint" />
          </mxGeometry>
        </mxCell>
        <mxCell id="JJwk-e65k5FWWCbelavX-104" value="PRENOTA" style="rhombus;whiteSpace=wrap;html=1;" vertex="1" parent="1">
          <mxGeometry x="-40" y="260" width="80" height="80" as="geometry" />
        </mxCell>
        <mxCell id="JJwk-e65k5FWWCbelavX-106" value="" style="endArrow=none;html=1;rounded=0;entryX=0.5;entryY=1;entryDx=0;entryDy=0;exitX=0.5;exitY=0;exitDx=0;exitDy=0;" edge="1" parent="1" source="JJwk-e65k5FWWCbelavX-104" target="JJwk-e65k5FWWCbelavX-6">
          <mxGeometry width="50" height="50" relative="1" as="geometry">
            <mxPoint x="-130" y="280" as="sourcePoint" />
            <mxPoint x="-80" y="230" as="targetPoint" />
          </mxGeometry>
        </mxCell>
        <mxCell id="JJwk-e65k5FWWCbelavX-107" value="" style="endArrow=none;html=1;rounded=0;entryX=0.5;entryY=1;entryDx=0;entryDy=0;exitX=0.5;exitY=0;exitDx=0;exitDy=0;" edge="1" parent="1" source="JJwk-e65k5FWWCbelavX-11" target="JJwk-e65k5FWWCbelavX-104">
          <mxGeometry width="50" height="50" relative="1" as="geometry">
            <mxPoint x="10" y="560" as="sourcePoint" />
            <mxPoint x="60" y="510" as="targetPoint" />
          </mxGeometry>
        </mxCell>
        <mxCell id="JJwk-e65k5FWWCbelavX-108" value="" style="endArrow=none;html=1;rounded=0;entryX=0;entryY=0;entryDx=0;entryDy=0;exitX=1;exitY=0.75;exitDx=0;exitDy=0;" edge="1" parent="1" source="JJwk-e65k5FWWCbelavX-11" target="JJwk-e65k5FWWCbelavX-91">
          <mxGeometry width="50" height="50" relative="1" as="geometry">
            <mxPoint x="40" y="550" as="sourcePoint" />
            <mxPoint x="90" y="500" as="targetPoint" />
          </mxGeometry>
        </mxCell>
        <mxCell id="JJwk-e65k5FWWCbelavX-109" value="" style="endArrow=none;html=1;rounded=0;entryX=0.25;entryY=1;entryDx=0;entryDy=0;exitX=0.5;exitY=0;exitDx=0;exitDy=0;" edge="1" parent="1" source="JJwk-e65k5FWWCbelavX-80" target="JJwk-e65k5FWWCbelavX-11">
          <mxGeometry width="50" height="50" relative="1" as="geometry">
            <mxPoint x="-110" y="640" as="sourcePoint" />
            <mxPoint x="-60" y="590" as="targetPoint" />
          </mxGeometry>
        </mxCell>
        <mxCell id="JJwk-e65k5FWWCbelavX-110" value="" style="endArrow=none;html=1;rounded=0;entryX=0.75;entryY=1;entryDx=0;entryDy=0;exitX=0.5;exitY=0;exitDx=0;exitDy=0;" edge="1" parent="1" source="JJwk-e65k5FWWCbelavX-79" target="JJwk-e65k5FWWCbelavX-11">
          <mxGeometry width="50" height="50" relative="1" as="geometry">
            <mxPoint x="-210" y="680" as="sourcePoint" />
            <mxPoint x="-160" y="630" as="targetPoint" />
          </mxGeometry>
        </mxCell>
        <mxCell id="JJwk-e65k5FWWCbelavX-111" value="" style="endArrow=none;html=1;rounded=0;entryX=0;entryY=1;entryDx=0;entryDy=0;exitX=1;exitY=0.5;exitDx=0;exitDy=0;" edge="1" parent="1" source="JJwk-e65k5FWWCbelavX-81" target="JJwk-e65k5FWWCbelavX-11">
          <mxGeometry width="50" height="50" relative="1" as="geometry">
            <mxPoint x="-210" y="560" as="sourcePoint" />
            <mxPoint x="-160" y="510" as="targetPoint" />
          </mxGeometry>
        </mxCell>
        <mxCell id="JJwk-e65k5FWWCbelavX-112" value="RICHIEDE" style="rhombus;whiteSpace=wrap;html=1;" vertex="1" parent="1">
          <mxGeometry x="160" y="370" width="80" height="80" as="geometry" />
        </mxCell>
        <mxCell id="JJwk-e65k5FWWCbelavX-113" value="" style="endArrow=none;html=1;rounded=0;entryX=1;entryY=0.5;entryDx=0;entryDy=0;exitX=0;exitY=0.5;exitDx=0;exitDy=0;" edge="1" parent="1" source="JJwk-e65k5FWWCbelavX-112" target="JJwk-e65k5FWWCbelavX-11">
          <mxGeometry width="50" height="50" relative="1" as="geometry">
            <mxPoint x="100" y="260" as="sourcePoint" />
            <mxPoint x="150" y="210" as="targetPoint" />
          </mxGeometry>
        </mxCell>
        <mxCell id="JJwk-e65k5FWWCbelavX-114" value="" style="endArrow=none;html=1;rounded=0;entryX=0;entryY=0.5;entryDx=0;entryDy=0;exitX=1;exitY=0.5;exitDx=0;exitDy=0;" edge="1" parent="1" source="JJwk-e65k5FWWCbelavX-112" target="JJwk-e65k5FWWCbelavX-9">
          <mxGeometry width="50" height="50" relative="1" as="geometry">
            <mxPoint x="170" y="440" as="sourcePoint" />
            <mxPoint x="220" y="390" as="targetPoint" />
          </mxGeometry>
        </mxCell>
      </root>
    </mxGraphModel>
  </diagram>
</mxfile>
